<svg width="42" height="42" viewBox="0 0 42 42" fill="none" xmlns="http://www.w3.org/2000/svg">
<rect width="42" height="42" fill="white"/>
<path d="M16.8 27L27.699 20.7L16.8 14.4V27ZM41.076 10.557C41.349 11.544 41.538 12.867 41.664 14.547C41.811 16.227 41.874 17.676 41.874 18.936L42 20.7C42 25.299 41.664 28.68 41.076 30.843C40.551 32.733 39.333 33.951 37.443 34.476C36.456 34.749 34.65 34.938 31.878 35.064C29.148 35.211 26.649 35.274 24.339 35.274L21 35.4C12.201 35.4 6.72 35.064 4.557 34.476C2.667 33.951 1.449 32.733 0.924 30.843C0.651 29.856 0.462 28.533 0.336 26.853C0.189 25.173 0.126 23.724 0.126 22.464L0 20.7C0 16.101 0.336 12.72 0.924 10.557C1.449 8.667 2.667 7.449 4.557 6.924C5.544 6.651 7.35 6.462 10.122 6.336C12.852 6.189 15.351 6.126 17.661 6.126L21 6C29.799 6 35.28 6.336 37.443 6.924C39.333 7.449 40.551 8.667 41.076 10.557Z" fill="#FF0033"/>
</svg>
