<svg width="42" height="42" viewBox="0 0 42 42" fill="none" xmlns="http://www.w3.org/2000/svg">
<path d="M39 21.0661C39 11.0886 30.941 3 21 3C11.059 3 3 11.0886 3 21.0661C3 29.5384 8.81184 36.6478 16.6519 38.6004V26.5871H12.9403V21.0661H16.6519V18.6872C16.6519 12.5382 19.4246 9.68808 25.4395 9.68808C26.58 9.68808 28.5478 9.91282 29.3527 10.1368V15.1412C28.9279 15.0964 28.1899 15.074 27.2734 15.074C24.3221 15.074 23.1816 16.1962 23.1816 19.1135V21.0661H29.0611L28.051 26.5871H23.1816V39C32.0945 37.9196 39.0007 30.303 39.0007 21.0661H39Z" fill="#0866FF"/>
</svg>
