<svg width="923" height="66" viewBox="0 0 923 66" fill="none" xmlns="http://www.w3.org/2000/svg">
<path d="M904.68 8.208C904.68 12.744 901.008 16.416 896.472 16.416C891.936 16.416 888.192 12.744 888.192 8.208C888.192 3.672 891.936 0 896.472 0C901.008 0 904.68 3.672 904.68 8.208ZM890.856 65.232L886.968 60.336C896.256 55.584 903.672 50.688 908.28 44.856C910.584 41.976 911.592 38.88 911.592 36C911.592 30.384 907.56 25.632 900.864 25.632C893.16 25.632 883.728 28.512 874.944 33.408L870.912 23.832C879.336 20.952 891.072 18.864 899.496 18.864C914.04 18.864 922.176 26.784 922.176 36.144C922.176 41.616 919.44 47.592 913.536 52.776C908.28 57.456 899.928 61.992 890.856 65.232Z" fill="#47B1BD"/>
<path d="M833.76 63.648L827.928 61.488C830.952 56.304 832.32 49.896 832.32 44.784C832.32 36.36 826.92 30.816 815.04 30.816C812.808 30.816 810.504 31.176 808.344 31.752L807.408 48.6C813.96 45 820.296 40.104 825.768 34.488L829.44 39.24C820.44 49.464 807.552 59.472 795.744 62.64C793.368 63.288 791.208 63.576 789.264 63.576C783.288 63.576 779.4 60.552 779.4 54.432C779.4 52.272 779.904 49.68 780.984 46.656C784.008 38.16 791.208 31.536 799.488 27.648V17.784H783.648L781.56 11.736L799.488 10.512V0.791992L809.928 2.232L809.496 9.864L836.928 8.06399V17.784H809.064L808.704 24.696C810.792 24.336 812.952 24.12 814.968 24.12C832.104 24.12 841.824 31.176 841.824 45C841.824 50.544 838.512 58.392 833.76 63.648ZM799.488 52.488V35.928C794.664 39.312 790.848 43.992 789.12 49.248C788.832 50.256 788.616 51.048 788.616 51.768C788.616 53.784 789.84 54.648 791.784 54.648C792.576 54.648 793.512 54.504 794.52 54.216C796.176 53.712 797.832 53.136 799.488 52.488Z" fill="#8BC5AD"/>
<path d="M718.056 65.088L714.744 59.904C728.784 53.784 733.464 45.072 733.896 37.368C734.184 32.256 734.328 26.928 734.328 21.528C734.328 14.616 734.112 7.63198 733.752 1.15198L744.984 2.66398C744.984 14.184 744.84 25.2 743.544 39.456C742.608 49.896 737.208 58.104 718.056 65.088ZM722.016 30.312L724.032 35.136C721.152 38.304 718.92 40.248 715.104 42.696C712.656 44.28 710.568 45.072 708.696 45.072C705.24 45.072 702.936 42.12 702.072 36.288C700.92 28.152 700.848 16.56 700.848 6.04798V2.59198L711.864 3.59998C710.856 11.664 710.424 19.008 710.424 25.2C710.424 27.36 710.496 29.376 710.568 31.248C710.64 33.696 711.216 34.632 712.512 34.632C713.016 34.632 713.664 34.488 714.456 34.2C717.696 33.12 719.568 32.112 722.016 30.312Z" fill="#FDD34E"/>
<path d="M648.216 63.576L630.792 59.976V55.296H633.096C638.856 55.296 640.152 54.504 640.512 52.992C642.024 46.8 643.104 38.952 643.104 34.632C643.104 26.784 640.296 24.048 633.528 24.048C632.232 24.048 630.864 24.12 629.424 24.192L616.464 63.072L608.976 60.84L618.336 25.92C614.592 26.712 611.064 27.72 608.616 28.728L606.672 18.792C610.704 18.288 615.744 17.856 620.568 17.64L624.96 1.224L636.048 4.536L631.8 17.208C646.344 17.28 651.6 21.168 651.6 34.92C651.6 41.76 650.448 54.216 648.216 63.576ZM672.336 34.632L661.824 40.68C659.736 31.968 656.568 24.336 653.76 17.64L659.16 14.976C663.624 20.232 668.232 27.072 672.336 34.632Z" fill="#9699CB"/>
<path d="M532.224 19.44C532.224 22.968 529.272 25.92 525.744 25.92C522.144 25.92 519.192 22.968 519.192 19.44C519.192 15.84 522.144 12.888 525.744 12.888C529.272 12.888 532.224 15.84 532.224 19.44ZM560.952 60.264L556.416 55.44C566.064 49.968 570.888 43.488 572.256 37.008C572.616 35.424 572.76 33.984 572.76 32.616C572.76 26.496 569.232 23.472 564.048 23.472C558.288 23.472 551.736 25.776 545.616 30.6C544.536 31.464 543.312 32.544 542.016 33.696L541.152 62.136L532.872 63.648V43.344C528.48 48.384 524.952 52.704 524.952 52.704L518.4 45.072C518.4 45.072 525.96 37.872 532.872 31.824L532.944 0.864014L543.024 2.37601L542.304 24.336C550.8 18.648 558.504 15.696 566.064 15.696C577.152 15.696 582.552 21.024 582.552 30.672C582.552 32.688 582.336 34.92 581.832 37.296C579.888 47.016 572.472 55.44 560.952 60.264Z" fill="#EE859A"/>
<path d="M456.768 58.104L448.632 65.664C444.528 59.544 438.912 52.92 434.952 49.32L439.92 44.712C445.248 47.736 451.512 52.56 456.768 58.104Z" fill="#B9E3F9"/>
<path d="M386.28 8.208C386.28 12.744 382.608 16.416 378.072 16.416C373.536 16.416 369.792 12.744 369.792 8.208C369.792 3.672 373.536 0 378.072 0C382.608 0 386.28 3.672 386.28 8.208ZM372.456 65.232L368.568 60.336C377.856 55.584 385.272 50.688 389.88 44.856C392.184 41.976 393.192 38.88 393.192 36C393.192 30.384 389.16 25.632 382.464 25.632C374.76 25.632 365.328 28.512 356.544 33.408L352.512 23.832C360.936 20.952 372.672 18.864 381.096 18.864C395.64 18.864 403.776 26.784 403.776 36.144C403.776 41.616 401.04 47.592 395.136 52.776C389.88 57.456 381.528 61.992 372.456 65.232Z" fill="#47B1BD"/>
<path d="M315.36 63.648L309.528 61.488C312.552 56.304 313.92 49.896 313.92 44.784C313.92 36.36 308.52 30.816 296.64 30.816C294.408 30.816 292.104 31.176 289.944 31.752L289.008 48.6C295.56 45 301.896 40.104 307.368 34.488L311.04 39.24C302.04 49.464 289.152 59.472 277.344 62.64C274.968 63.288 272.808 63.576 270.864 63.576C264.888 63.576 261 60.552 261 54.432C261 52.272 261.504 49.68 262.584 46.656C265.608 38.16 272.808 31.536 281.088 27.648V17.784H265.248L263.16 11.736L281.088 10.512V0.791992L291.528 2.232L291.096 9.864L318.528 8.06399V17.784H290.664L290.304 24.696C292.392 24.336 294.552 24.12 296.568 24.12C313.704 24.12 323.424 31.176 323.424 45C323.424 50.544 320.112 58.392 315.36 63.648ZM281.088 52.488V35.928C276.264 39.312 272.448 43.992 270.72 49.248C270.432 50.256 270.216 51.048 270.216 51.768C270.216 53.784 271.44 54.648 273.384 54.648C274.176 54.648 275.112 54.504 276.12 54.216C277.776 53.712 279.432 53.136 281.088 52.488Z" fill="#8BC5AD"/>
<path d="M207.864 64.8721L203.4 60.2641C210.384 56.9521 216.648 52.6321 219.168 49.0321C220.392 47.3041 220.968 45.7201 220.968 44.3521C220.968 41.6161 218.592 39.8881 214.416 39.8881C207.648 39.8881 200.88 41.4001 194.544 44.6401L187.992 41.2561L193.752 21.4561H176.688L174.24 15.3361L195.84 14.1121L199.872 0.216064L209.88 3.09606L206.28 13.5361L236.592 11.8081V21.4561H203.544L198.792 35.2801C204.12 33.5521 210.024 32.9761 217.368 32.9761C226.584 32.9761 232.128 37.9441 232.128 43.9921C232.128 46.6561 231.12 49.4641 228.888 52.2001C224.856 57.0961 215.28 62.2801 207.864 64.8721Z" fill="#FDD34E"/>
<path d="M129.816 63.576L112.392 59.976V55.296H114.696C120.456 55.296 121.752 54.504 122.112 52.992C123.624 46.8 124.704 38.952 124.704 34.632C124.704 26.784 121.896 24.048 115.128 24.048C113.832 24.048 112.464 24.12 111.024 24.192L98.0642 63.072L90.5762 60.84L99.9362 25.92C96.1922 26.712 92.6642 27.72 90.2162 28.728L88.2722 18.792C92.3042 18.288 97.3442 17.856 102.168 17.64L106.56 1.224L117.648 4.536L113.4 17.208C127.944 17.28 133.2 21.168 133.2 34.92C133.2 41.76 132.048 54.216 129.816 63.576ZM153.936 34.632L143.424 40.68C141.336 31.968 138.168 24.336 135.36 17.64L140.76 14.976C145.224 20.232 149.832 27.072 153.936 34.632Z" fill="#9699CB"/>
<path d="M13.824 19.44C13.824 22.968 10.872 25.92 7.344 25.92C3.744 25.92 0.792 22.968 0.792 19.44C0.792 15.84 3.744 12.888 7.344 12.888C10.872 12.888 13.824 15.84 13.824 19.44ZM42.552 60.264L38.016 55.44C47.664 49.968 52.488 43.488 53.856 37.008C54.216 35.424 54.36 33.984 54.36 32.616C54.36 26.496 50.832 23.472 45.648 23.472C39.888 23.472 33.336 25.776 27.216 30.6C26.136 31.464 24.912 32.544 23.616 33.696L22.752 62.136L14.472 63.648V43.344C10.08 48.384 6.552 52.704 6.552 52.704L0 45.072C0 45.072 7.56 37.872 14.472 31.824L14.544 0.864014L24.624 2.37601L23.904 24.336C32.4 18.648 40.104 15.696 47.664 15.696C58.752 15.696 64.152 21.024 64.152 30.672C64.152 32.688 63.936 34.92 63.432 37.296C61.488 47.016 54.072 55.44 42.552 60.264Z" fill="#EE859A"/>
</svg>
