<svg width="300" height="156" viewBox="0 0 300 156" fill="none" xmlns="http://www.w3.org/2000/svg">
<g clip-path="url(#clip0_2189_118)">
<path d="M83.9253 127.192L84.0719 129.014L80.7572 129.339L80.9038 130.77L84.5981 130.425L84.7317 132.27L81.0714 132.616L81.362 135.602L79.325 135.736L79.0448 132.817L75.2379 133.176L75.0703 131.331L78.8642 130.972L78.7306 129.54L75.395 129.865L75.2379 128.02L78.5526 127.705L78.3955 126.072L80.4325 125.915L80.5791 127.504L83.9253 127.19V127.192Z" fill="#241A17"/>
<path d="M87.1369 131.844C87.0374 131.307 86.8123 130.234 86.252 129.004L87.7967 128.601C88.3439 129.608 88.6372 130.815 88.7812 131.464L87.1343 131.844H87.1369ZM87.0008 134.327C90.9177 133.445 91.9152 131.946 92.6431 128.187L94.5466 128.645C93.9522 131.105 93.1144 134.605 88.2549 135.791L87.0008 134.325V134.327ZM89.6452 131.297C89.4776 130.401 89.297 129.564 88.8493 128.478L90.394 128.163C90.8313 129.035 91.0879 129.975 91.2345 130.938L89.6452 131.297Z" fill="#241A17"/>
<path d="M103.044 128.143C102.541 129.742 101.834 130.781 101.554 131.184C103.389 132.537 104.295 133.422 104.992 134.102L103.379 135.746C102.07 134.27 101.085 133.307 100.344 132.66C99.92 133.108 98.3281 134.762 96.1471 135.691L95.0396 134.047C96.6969 133.364 99.5299 131.765 100.815 128.389H95.7229V126.533H101.97L103.044 128.143ZM103.222 125.614C103.4 125.871 103.792 126.465 104.251 127.773L103.389 128.221C103.099 127.305 102.886 126.8 102.415 126.017L103.222 125.614ZM104.667 125.224C105.115 125.918 105.34 126.454 105.685 127.394L104.824 127.842C104.533 126.925 104.321 126.41 103.86 125.638L104.667 125.224Z" fill="#241A17"/>
<path d="M116.386 126.7L118.389 129.072C118.109 130.493 117.326 134.451 111.581 135.66L110.696 133.815C115.297 132.932 116.004 130.729 116.349 128.637H110.037V126.703H116.383L116.386 126.7ZM120.237 126.734C120.237 127.572 119.554 128.245 118.727 128.245C117.899 128.245 117.216 127.575 117.216 126.734C117.216 125.894 117.899 125.224 118.727 125.224C119.554 125.224 120.237 125.894 120.237 126.734ZM117.986 126.734C117.986 127.148 118.31 127.472 118.724 127.472C119.138 127.472 119.462 127.148 119.462 126.734C119.462 126.321 119.114 125.996 118.724 125.996C118.334 125.996 117.986 126.321 117.986 126.734Z" fill="#241A17"/>
<path d="M129.493 126.7V135.155H120.74V126.7H129.493ZM127.501 128.546H122.733V133.309H127.501V128.546Z" fill="#241A17"/>
<path d="M130.983 134.126C135.371 133.545 136.738 131.163 137.275 128.58H134.319C133.714 129.485 132.941 130.401 131.7 131.153L130.446 129.721C131.755 128.949 132.517 127.931 133.044 126.768H137.61L139.155 128.849C138.471 131.87 137.107 135.034 131.766 135.94L130.983 134.129V134.126ZM138.56 125.659C139.131 126.342 139.456 126.933 139.825 127.695L139.018 128.232C138.626 127.36 138.359 126.878 137.809 126.164L138.56 125.661V125.659ZM140.04 125.224C140.555 125.85 140.856 126.399 141.283 127.271L140.477 127.808C140.097 126.946 139.872 126.522 139.28 125.716L140.042 125.224H140.04Z" fill="#241A17"/>
<path d="M150.628 129.025C150.494 130.613 149.979 132.927 148.277 134.147C146.878 135.155 144.75 135.534 143.239 135.644L142.634 133.809C145.87 133.663 147.74 132.982 148.277 130.836H141.571V129.025H150.628ZM149.924 126.352V128.153H142.401V126.352H149.924Z" fill="#241A17"/>
<path d="M160.344 135.78C157.501 135.019 155.396 134.663 152.207 134.451L152.576 132.571C154.916 132.616 157.435 132.896 161.017 133.757L160.344 135.78ZM159.593 132.179C157.299 131.53 155.574 131.239 152.809 131.027L153.157 129.271C156.425 129.506 157.993 129.786 159.985 130.333L159.593 132.179ZM160.211 129.082C158.687 128.624 156.571 128.088 152.866 127.876L153.181 126.085C156.864 126.263 158.789 126.622 160.569 127.08L160.211 129.082Z" fill="#241A17"/>
<path d="M166.131 129.909C165.01 129.161 164.036 128.679 162.627 128.187L163.499 126.52C164.911 126.944 165.94 127.381 167.17 128.119L166.128 129.909H166.131ZM162.84 133.466C163.701 133.388 166.309 133.152 167.99 131.666C169.165 130.637 170.016 128.802 170.474 126.991L172.197 128.166C170.618 133.432 167.73 134.953 163.298 135.581L162.84 133.466Z" fill="#241A17"/>
<path d="M173.071 134.126C177.46 133.545 178.826 131.163 179.363 128.58H176.407C175.802 129.485 175.03 130.401 173.789 131.153L172.535 129.721C173.844 128.949 174.606 127.931 175.132 126.768H179.698L181.243 128.849C180.56 131.87 179.196 135.034 173.854 135.94L173.071 134.129V134.126ZM180.649 125.659C181.219 126.342 181.544 126.933 181.913 127.695L181.107 128.232C180.714 127.36 180.447 126.878 179.897 126.164L180.649 125.661V125.659ZM182.125 125.224C182.641 125.85 182.942 126.399 183.369 127.271L182.563 127.808C182.183 126.946 181.958 126.522 181.366 125.716L182.128 125.224H182.125Z" fill="#241A17"/>
<path d="M191.629 126.52C191.25 128.768 190.399 130.289 189.749 131.205C191.182 132.278 191.899 132.838 193.232 134.157L191.574 135.767C190.925 135.039 189.917 133.901 188.553 132.671C186.707 134.56 185.317 135.278 184.356 135.678L183.259 134.045C184.67 133.451 185.969 132.613 187.021 131.516C188.33 130.174 188.823 128.909 189.037 128.373H183.945V126.517H191.635L191.629 126.52Z" fill="#241A17"/>
<path d="M194.504 133.993C197.259 133.545 200.338 132.147 200.974 128.266H197.929C197.212 129.362 196.418 130.244 195.188 131.006L193.934 129.564C195.266 128.771 196.073 127.763 196.654 126.454H203.236C203.158 127.64 202.967 130.613 200.807 132.985C199.966 133.89 198.434 135.21 195.298 135.804L194.502 133.993H194.504Z" fill="#241A17"/>
<path d="M214.073 129.841V131.878H204.514V129.841H214.073Z" fill="#241A17"/>
<path d="M218.035 128.959C218.035 132.404 217.453 134.451 216.076 135.77L214.586 134.249C215.851 132.851 216.063 131.307 216.063 129.137V126.509H218.032V128.959H218.035ZM221.09 133.074C221.671 132.773 222.758 132.145 223.172 129.574L225.041 130.38C224.627 132.124 223.551 135.424 219.132 135.537V126.232H221.09V133.076V133.074Z" fill="#241A17"/>
<path d="M122.4 139.46H112.063L107.965 135.233L103.865 139.46H93.5283V156H122.4V139.46Z" fill="#231815"/>
<path d="M169.419 61.8903C157.186 58.2285 153.848 51.3211 158.598 39.4825C155.618 35.9673 152.154 32.8683 148.305 30.2927C137.068 36.339 129.82 33.8106 124.798 22.0845C123.948 22.0138 123.089 21.9667 122.225 21.9379C118.384 21.8175 114.634 22.1395 111.019 22.8514C107.353 35.0722 100.438 38.4068 88.588 33.6614C85.069 36.64 81.969 40.1002 79.3874 43.9452C85.4408 55.174 82.909 62.4138 71.1713 67.4288C71.1006 68.2794 71.0535 69.138 71.0247 69.9991C70.9043 73.8362 71.2263 77.5818 71.9385 81.1938C84.171 84.8556 87.5093 91.7656 82.7597 103.602C85.7393 107.117 89.2033 110.216 93.0521 112.791C104.292 106.745 111.54 109.274 116.559 121C117.41 121.07 118.269 121.12 119.133 121.146C122.974 121.267 126.723 120.945 130.339 120.233C134.004 108.012 140.919 104.677 152.769 109.423C156.288 106.444 159.388 102.984 161.97 99.1389C155.916 87.9101 158.448 80.6703 170.186 75.6554C170.257 74.8047 170.306 73.9462 170.333 73.085C170.453 69.2479 170.131 65.5024 169.419 61.8903Z" fill="url(#paint0_linear_2189_118)"/>
<path d="M146.339 59.7677L141.969 61.346C137.117 51.1956 125.676 45.8822 114.776 48.7326L113.249 44.5133L108.859 46.1073L110.393 50.3476C100.373 55.2107 95.1206 66.4997 97.8697 77.2913L93.4946 78.8723L95.0918 83.2591L99.4616 81.6808C104.266 91.7343 115.538 97.0424 126.346 94.3727L127.985 98.9008L132.376 97.3068L130.75 92.8127C140.956 88.028 146.336 76.6265 143.561 65.7328L147.936 64.1519L146.339 59.765V59.7677ZM132.407 72.8155C131.705 79.2727 125.896 83.937 119.434 83.2355C112.972 82.534 108.301 76.7312 109.005 70.274C109.707 63.8168 115.517 59.1526 121.979 59.854C128.44 60.5555 133.111 66.3583 132.407 72.8155Z" fill="url(#paint1_linear_2189_118)"/>
<path d="M120.311 59.7912C113.812 59.9953 108.712 65.4213 108.916 71.9125C109.12 78.4037 114.553 83.4998 121.049 83.2983C127.548 83.0941 132.648 77.6682 132.444 71.177C132.24 64.6858 126.807 59.5896 120.311 59.7912Z" fill="url(#paint2_linear_2189_118)"/>
<path d="M102.232 151.121L101.502 153.398H98.6162L102.711 142.052H105.921L110.016 153.398H107.131L106.398 151.121H102.232ZM105.696 148.928L104.316 144.667L102.936 148.928H105.696Z" fill="white"/>
<path d="M114.493 142.052V153.398H111.861V142.052H114.493Z" fill="white"/>
<path d="M222.774 92.7916V87.3238C222.774 86.8815 222.502 86.4993 222.117 86.3371C221.988 86.2821 221.847 86.2533 221.7 86.2533H216.228H198.628H193.156C192.96 86.2533 192.777 86.3109 192.619 86.4051C192.35 86.5648 192.156 86.8344 192.101 87.1537C192.091 87.2113 192.083 87.2662 192.083 87.3264V105.779C192.083 105.889 192.104 105.994 192.135 106.096C192.201 106.308 192.331 106.491 192.502 106.625C192.682 106.766 192.907 106.852 193.154 106.852H215.155V112.229H193.154C192.564 112.229 192.08 112.71 192.08 113.299V118.767C192.08 119.356 192.562 119.837 193.154 119.837H221.7C222.269 119.837 222.735 119.387 222.766 118.827C222.766 118.806 222.771 118.788 222.771 118.767V105.782V100.314V92.7942L222.774 92.7916ZM199.702 99.241V93.8648H215.157V99.241H199.702Z" fill="#241A17"/>
<path d="M182.471 97.1758L188.59 89.1953C188.948 88.7267 188.76 88.3446 188.168 88.3446H183.196C182.607 88.3446 181.829 88.7267 181.471 89.1953L178.714 92.7916L175.601 89.1586C175.216 88.711 174.42 88.3446 173.831 88.3446H170.372C169.783 88.3446 169.592 88.7267 169.95 89.1953L175.71 96.7099L169.95 104.225C169.592 104.693 169.78 105.075 170.372 105.075H175.344C175.933 105.075 176.711 104.693 177.069 104.225L179.271 101.353L181.473 104.225C181.832 104.693 182.607 105.075 183.199 105.075H188.171C188.76 105.075 188.93 104.709 188.545 104.261L182.473 97.1758H182.471Z" fill="#241A17"/>
<g filter="url(#filter0_d_2189_118)">
<path d="M166.457 78.032V72.5642C166.457 72.0617 166.106 71.6403 165.638 71.5251C165.557 71.5042 165.473 71.4911 165.384 71.4911H159.912H136.837H136.672C136.172 71.4911 135.766 71.8994 135.766 72.3967V104.167C135.766 104.664 136.175 105.073 136.672 105.073H165.384C165.973 105.073 166.457 104.591 166.457 104.002V98.5343V91.0145V85.5467V78.0268V78.032ZM143.383 79.1026H158.838V84.4788H143.383V79.1026ZM143.383 92.0902H158.838V97.4664H143.383V92.0902Z" fill="#241A17"/>
</g>
<path d="M228.099 32.6302C227.924 29.9395 227.44 27.2671 226.646 24.6732C218.001 23.4718 215.485 19.1661 218.603 10.8977C217.98 10.2407 217.325 9.60468 216.642 8.98697C215.257 7.73846 213.798 6.62343 212.285 5.63666C204.86 10.136 200.212 8.4504 197.442 0.25C194.69 -0.0797959 191.913 -0.0824133 189.166 0.236913C186.22 8.42684 181.568 10.0941 174.299 5.56599C172.035 7.02652 169.909 8.77234 167.971 10.8008C170.914 19.085 168.38 23.3802 159.87 24.5476C159.064 27.1467 158.569 29.8164 158.386 32.5019C166.049 37.0222 166.887 42.0137 161.062 48.5023C162.083 50.9155 163.384 53.2372 164.968 55.4096C173.81 53.847 177.719 57.1686 177.53 66.0809C179.9 67.2744 182.369 68.1801 184.893 68.7978C190.538 61.825 195.693 61.8354 201.469 68.824C204.004 68.2115 206.483 67.3163 208.85 66.1385C208.541 57.2418 212.461 53.9387 221.433 55.5248C223.036 53.3419 224.35 51.0228 225.379 48.6148C219.436 42.1105 220.279 37.1243 228.102 32.6328L228.099 32.6302ZM197.607 55.4018C186.514 58.2653 175.198 51.6065 172.331 40.5243C169.464 29.4422 176.13 18.1375 187.223 15.2714C198.317 12.4079 209.633 19.0693 212.5 30.1489C215.367 41.231 208.701 52.5357 197.607 55.4018Z" fill="url(#paint3_linear_2189_118)"/>
<path d="M187.223 15.2714C176.13 18.1374 169.464 29.4421 172.331 40.5243C175.198 51.6065 186.514 58.2678 197.607 55.4017C208.701 52.5383 215.367 41.231 212.5 30.1488C209.633 19.0666 198.317 12.4053 187.223 15.2714ZM192.531 42.8774C188.318 42.6051 185.123 38.9722 185.396 34.7633C185.412 34.5016 185.443 34.2477 185.485 33.9938L182.956 32.9835L184.186 29.9787L186.692 30.9785C188.163 28.8087 190.713 27.4529 193.52 27.6335C197.733 27.9057 200.927 31.5387 200.655 35.7475C200.639 36.0066 200.608 36.2631 200.566 36.517L203.095 37.5273L201.865 40.5321L199.359 39.5323C197.887 41.7021 195.337 43.058 192.531 42.8774Z" fill="url(#paint4_linear_2189_118)"/>
<path d="M203.095 37.5275L200.565 36.5172C200.607 36.2659 200.636 36.0094 200.654 35.7476C200.927 31.5388 197.733 27.9058 193.52 27.6336C190.713 27.453 188.163 28.8088 186.691 30.9787L184.186 29.9788L182.955 32.9836L185.484 33.994C185.442 34.2452 185.414 34.5018 185.395 34.7635C185.123 38.9723 188.317 42.6053 192.53 42.8775C195.337 43.0581 197.887 41.7023 199.358 39.5324L201.864 40.5323L203.095 37.5275Z" fill="url(#paint5_linear_2189_118)"/>
<path d="M221.724 72.2476C221.687 72.2319 221.645 72.2214 221.593 72.2214H215.105H213.204C213 72.2214 212.798 72.3863 212.756 72.5853L211.384 79.2073C211.342 79.4089 211.476 79.5712 211.68 79.5712H213.581C213.785 79.5712 213.987 79.4063 214.029 79.2073L214.929 74.8624H218.804L217.11 83.5156C217.071 83.7172 217.207 83.8794 217.411 83.8794H219.312C219.516 83.8794 219.715 83.7145 219.755 83.5156L221.894 72.5853C221.923 72.4308 221.852 72.3 221.724 72.2476Z" fill="#241A17"/>
<path d="M189.312 71.7634H187.411C187.207 71.7634 186.982 71.9205 186.911 72.1115L182.905 83.0733C182.835 83.2644 182.945 83.4214 183.149 83.4214H185.05C185.254 83.4214 185.479 83.2644 185.55 83.0733L189.556 72.1115C189.626 71.9205 189.516 71.7634 189.312 71.7634Z" fill="#241A17"/>
<path d="M193.352 77.1709C193.277 76.9799 193.049 76.8254 192.845 76.8254H190.944C190.739 76.8254 190.632 76.9799 190.708 77.1709L193.329 83.8297C193.405 84.0207 193.633 84.1752 193.837 84.1752H195.738C195.942 84.1752 196.049 84.0207 195.973 83.8297L193.352 77.1709Z" fill="#241A17"/>
<path d="M199.476 77.1709C199.402 76.9799 199.175 76.8254 198.968 76.8254H197.067C196.863 76.8254 196.755 76.9825 196.829 77.1709L197.978 80.1234C198.051 80.3145 198.279 80.4715 198.486 80.4715H200.387C200.591 80.4715 200.699 80.3145 200.625 80.1234L199.476 77.1709Z" fill="#241A17"/>
<path d="M208.553 76.8229H206.653C206.448 76.8229 206.247 76.9878 206.205 77.1867L204.833 83.8088C204.791 84.0103 204.925 84.1726 205.131 84.1726H207.032C207.236 84.1726 207.438 84.0077 207.48 83.8088L208.852 77.1867C208.894 76.9852 208.76 76.8229 208.556 76.8229H208.553Z" fill="#241A17"/>
<path d="M203.532 77.1709C203.459 76.9799 203.231 76.8254 203.024 76.8254H201.123C200.919 76.8254 200.812 76.9825 200.885 77.1709L202.032 80.1234C202.105 80.3145 202.335 80.4715 202.54 80.4715H204.44C204.645 80.4715 204.752 80.3145 204.679 80.1234L203.529 77.1709H203.532Z" fill="#241A17"/>
<path d="M165.638 71.4938H136.672C136.172 71.4938 135.766 71.9021 135.766 72.3994V104.17" stroke="#C7E8FA" stroke-width="0.238124" stroke-miterlimit="10"/>
<path d="M158.841 79.1025V84.4787H143.383" stroke="#C7E8FA" stroke-width="0.238124" stroke-miterlimit="10"/>
<path d="M158.841 92.0902V97.4664H143.383" stroke="#C7E8FA" stroke-width="0.238124" stroke-miterlimit="10"/>
</g>
<defs>
<filter id="filter0_d_2189_118" x="134.811" y="70.5361" width="31.6464" height="34.5366" filterUnits="userSpaceOnUse" color-interpolation-filters="sRGB">
<feFlood flood-opacity="0" result="BackgroundImageFix"/>
<feColorMatrix in="SourceAlpha" type="matrix" values="0 0 0 0 0 0 0 0 0 0 0 0 0 0 0 0 0 0 127 0" result="hardAlpha"/>
<feOffset dx="-0.47878" dy="-0.47878"/>
<feGaussianBlur stdDeviation="0.238124"/>
<feColorMatrix type="matrix" values="0 0 0 0 1 0 0 0 0 1 0 0 0 0 1 0 0 0 0.8 0"/>
<feBlend mode="normal" in2="BackgroundImageFix" result="effect1_dropShadow_2189_118"/>
<feBlend mode="normal" in="SourceGraphic" in2="effect1_dropShadow_2189_118" result="shape"/>
</filter>
<linearGradient id="paint0_linear_2189_118" x1="138.047" y1="112.221" x2="101.123" y2="25.6828" gradientUnits="userSpaceOnUse">
<stop stop-color="#0066B5"/>
<stop offset="0.08" stop-color="#0066B5"/>
<stop offset="0.28" stop-color="#0268B6"/>
<stop offset="0.41" stop-color="#0A70BB"/>
<stop offset="0.51" stop-color="#187FC4"/>
<stop offset="0.59" stop-color="#177FC4" stop-opacity="0.98"/>
<stop offset="0.66" stop-color="#1681C6" stop-opacity="0.92"/>
<stop offset="0.72" stop-color="#1384CA" stop-opacity="0.83"/>
<stop offset="0.79" stop-color="#1089CF" stop-opacity="0.69"/>
<stop offset="0.86" stop-color="#0C8ED5" stop-opacity="0.52"/>
<stop offset="0.92" stop-color="#0795DD" stop-opacity="0.31"/>
<stop offset="0.99" stop-color="#019EE6" stop-opacity="0.06"/>
<stop offset="1" stop-color="#00A0E9" stop-opacity="0"/>
</linearGradient>
<linearGradient id="paint1_linear_2189_118" x1="126.805" y1="96.1661" x2="114.358" y2="45.7541" gradientUnits="userSpaceOnUse">
<stop stop-color="#FFF21F"/>
<stop offset="0.15" stop-color="#FEF223"/>
<stop offset="0.31" stop-color="#FEF22F"/>
<stop offset="0.46" stop-color="#FDF344"/>
<stop offset="0.62" stop-color="#FBF360"/>
<stop offset="0.78" stop-color="#FAF585"/>
<stop offset="0.94" stop-color="#F7F6B2"/>
<stop offset="1" stop-color="#F7F7C6"/>
</linearGradient>
<linearGradient id="paint2_linear_2189_118" x1="138.049" y1="112.221" x2="101.113" y2="25.662" gradientUnits="userSpaceOnUse">
<stop stop-color="#0066B5"/>
<stop offset="0.23" stop-color="#0268B6"/>
<stop offset="0.36" stop-color="#0970BB"/>
<stop offset="0.46" stop-color="#167DC3"/>
<stop offset="0.47" stop-color="#187FC4"/>
<stop offset="0.55" stop-color="#177FC4" stop-opacity="0.98"/>
<stop offset="0.63" stop-color="#1681C6" stop-opacity="0.92"/>
<stop offset="0.7" stop-color="#1384CA" stop-opacity="0.83"/>
<stop offset="0.77" stop-color="#1089CF" stop-opacity="0.69"/>
<stop offset="0.85" stop-color="#0C8ED5" stop-opacity="0.52"/>
<stop offset="0.92" stop-color="#0795DD" stop-opacity="0.31"/>
<stop offset="0.99" stop-color="#019EE6" stop-opacity="0.06"/>
<stop offset="1" stop-color="#00A0E9" stop-opacity="0"/>
</linearGradient>
<linearGradient id="paint3_linear_2189_118" x1="207.824" y1="65.5339" x2="177.224" y2="2.20548" gradientUnits="userSpaceOnUse">
<stop stop-color="#00A93A"/>
<stop offset="0.18" stop-color="#02A93A"/>
<stop offset="0.27" stop-color="#0AAA3A"/>
<stop offset="0.35" stop-color="#18AC3C"/>
<stop offset="0.41" stop-color="#2BAF3D"/>
<stop offset="0.47" stop-color="#44B340"/>
<stop offset="0.53" stop-color="#63B843"/>
<stop offset="0.54" stop-color="#6EBA44"/>
<stop offset="0.67" stop-color="#6EBA43" stop-opacity="0.99"/>
<stop offset="0.74" stop-color="#6FBA41" stop-opacity="0.94"/>
<stop offset="0.79" stop-color="#72BB3F" stop-opacity="0.87"/>
<stop offset="0.84" stop-color="#75BC3B" stop-opacity="0.77"/>
<stop offset="0.88" stop-color="#7ABD36" stop-opacity="0.63"/>
<stop offset="0.92" stop-color="#7FBE30" stop-opacity="0.46"/>
<stop offset="0.96" stop-color="#86C028" stop-opacity="0.27"/>
<stop offset="0.99" stop-color="#8DC220" stop-opacity="0.04"/>
<stop offset="1" stop-color="#8FC31F" stop-opacity="0"/>
</linearGradient>
<linearGradient id="paint4_linear_2189_118" x1="199.333" y1="52.5671" x2="185.1" y2="17.1004" gradientUnits="userSpaceOnUse">
<stop stop-color="#FFF21F"/>
<stop offset="0.15" stop-color="#FEF223"/>
<stop offset="0.31" stop-color="#FEF22F"/>
<stop offset="0.46" stop-color="#FDF344"/>
<stop offset="0.62" stop-color="#FBF360"/>
<stop offset="0.78" stop-color="#FAF585"/>
<stop offset="0.94" stop-color="#F7F6B2"/>
<stop offset="1" stop-color="#F7F7C6"/>
</linearGradient>
<linearGradient id="paint5_linear_2189_118" x1="207.698" y1="65.602" x2="177.093" y2="2.26316" gradientUnits="userSpaceOnUse">
<stop stop-color="#00A93A"/>
<stop offset="0.18" stop-color="#02A93A"/>
<stop offset="0.27" stop-color="#0AAA3A"/>
<stop offset="0.35" stop-color="#18AC3C"/>
<stop offset="0.41" stop-color="#2BAF3D"/>
<stop offset="0.47" stop-color="#44B340"/>
<stop offset="0.53" stop-color="#63B843"/>
<stop offset="0.54" stop-color="#6EBA44"/>
<stop offset="0.67" stop-color="#6EBA43" stop-opacity="0.99"/>
<stop offset="0.74" stop-color="#6FBA41" stop-opacity="0.94"/>
<stop offset="0.79" stop-color="#72BB3F" stop-opacity="0.87"/>
<stop offset="0.84" stop-color="#75BC3B" stop-opacity="0.77"/>
<stop offset="0.88" stop-color="#7ABD36" stop-opacity="0.63"/>
<stop offset="0.92" stop-color="#7FBE30" stop-opacity="0.46"/>
<stop offset="0.96" stop-color="#86C028" stop-opacity="0.27"/>
<stop offset="0.99" stop-color="#8DC220" stop-opacity="0.04"/>
<stop offset="1" stop-color="#8FC31F" stop-opacity="0"/>
</linearGradient>
<clipPath id="clip0_2189_118">
<rect width="158" height="156" fill="white" transform="translate(71)"/>
</clipPath>
</defs>
</svg>
