<svg width="300" height="43" viewBox="0 0 300 43" fill="none" xmlns="http://www.w3.org/2000/svg">
<path d="M43.0189 15.3807C47.3246 15.3807 50.6367 11.9076 50.6367 7.77298C50.6367 3.47298 47.159 0.165283 43.0189 0.165283C38.8788 0.165283 35.4011 3.63836 35.4011 7.77298C35.4011 12.073 38.8788 15.3807 43.0189 15.3807ZM54.9425 14.0576L48.3183 26.9576C47.9871 27.7845 46.9934 28.1153 46.1654 27.7845C45.8342 27.7845 45.503 27.2884 45.3374 26.9576L38.7132 16.8691C36.7259 13.3961 29.7705 13.0653 27.1208 16.8691L21.4902 25.6345L30.9297 41.5114L38.2163 28.7768C38.5476 27.9499 39.5412 27.6191 40.2036 28.1153C40.5348 28.1153 40.866 28.6114 40.866 28.7768L47.159 38.6999C49.3119 42.3384 55.9361 42.5037 58.4202 38.6999L63.7195 29.273L54.4456 13.8922L54.9425 14.0576Z" fill="#264293"/>
<path d="M100.318 7.77294H89.3885V2.14986H84.2547V7.77294H73.1591V2.14986H68.0254V13.0652H100.153V16.5383H68.0254V21.8306H73.4904L68.0254 39.3614H105.783V25.3037H78.2929L79.4521 21.6652H105.783V2.14986H100.153V7.77294H100.318ZM100.318 30.4306V34.0691H75.6432L76.8025 30.4306H100.318ZM112.408 4.29986V9.75755H128.471V12.8999H112.408V18.1922H128.471V21.3345H112.408V26.6268H128.471V34.0691H121.516V39.5268H134.267V26.6268H150.331V21.3345H134.267V18.1922H150.331V12.8999H134.267V9.75755H142.216L150.331 7.27679V1.81909L142.216 4.29986H112.573H112.408ZM156.459 39.5268H161.923V36.3845H188.586V39.5268H194.051V1.98448H156.293V39.5268H156.459ZM162.089 7.44217H188.752V15.8768H162.089V7.44217ZM162.089 21.4999H188.752V30.9268H162.089V21.4999ZM237.605 16.2076H231.312L225.185 27.9499V7.27679H230.153L225.185 16.2076H231.312L238.599 1.81909H220.051V12.8999H212.764V10.2537H218.395V4.9614H212.764V1.81909H207.134V4.9614H201.006V10.2537H207.134V12.8999H201.006V18.5229H202.994V22.8229H201.006V27.9499H207.134V31.0922H201.006V36.5499H207.134V39.5268H212.764V36.5499H218.726V31.0922H212.764V27.9499H220.051V39.5268H225.35L229.325 32.9114L233.134 39.5268H238.599L231.974 27.2883L237.605 16.2076ZM211.439 22.8229H207.796V18.5229H211.439V22.8229ZM219.885 22.8229H216.739V18.5229H219.885V22.8229ZM280 19.5152V14.3883H270.892V2.14986H265.427V14.3883H259.134V8.76525H253.669V2.14986H248.038V8.76525H242.242V14.3883H252.344L242.242 31.0922H248.038V39.3614H253.669V24.6422H259.134V19.3499H255.822L259.134 14.2229V19.3499H265.427V34.0691H256.318V39.196H280V34.0691H270.892V19.3499H280V19.5152Z" fill="#E01F06"/>
</svg>
